<svg viewBox="0 0 48 48" fill="none" xmlns="http://www.w3.org/2000/svg">
<path d="M38.8563 1.22266H44.1476V6.58266H38.8563V1.22266ZM46.5019 29.3941C44.3762 29.4398 35.5416 29.4512 33.5873 29.4512C31.6102 29.4512 29.1193 29.4284 26.9478 29.3941L26.3764 30.377L36.7648 47.5998L38.0332 47.5884L38.5477 46.5713L29.416 31.4284C31.0046 31.4513 32.3416 31.4627 33.5873 31.4627C35.2559 31.4627 44.1134 31.4398 46.5019 31.3941V29.3941ZM47.0963 8.41124L35.2447 8.54837L46.4221 25.417H46.685L47.0963 8.41124ZM10.1588 8.53697H26.2045V22.1598H10.1588V8.53697ZM21.3474 29.4512L31.6448 46.6741L31.0388 47.6112H29.7246L19.5075 30.4227L20.0332 29.4741L21.3474 29.4512ZM0.501953 23.8627H31.6677V25.8741H17.7134L4.9361 45.6341H23.5421V47.6455H2.82171L1.90764 46.537L15.2676 25.8741H0.513114V23.8627H0.501953Z" fill="#738992"/>
</svg>
