<svg width="48" height="48" viewBox="0 0 48 48" fill="none" xmlns="http://www.w3.org/2000/svg">
<path fill-rule="evenodd" clip-rule="evenodd" d="M14.1731 2H33.8333C35.9618 2 37.6841 3.72225 37.6841 5.85079C37.6841 15.0912 32.6971 20.391 24.0032 20.391C15.3092 20.391 10.3223 15.0912 10.3223 5.85079C10.3223 3.72225 12.0445 2 14.1731 2ZM30.6908 7.00135H17.2688C16.1865 7.00135 15.3955 7.9973 15.6077 9.05438C16.4634 13.3115 19.2319 15.3933 24.0032 15.3933C27.1996 15.3933 31.3021 14.6634 32.4023 9.06157C32.6108 7.99011 31.7767 7.00135 30.6908 7.00135ZM2.49888 2.0072C3.87955 2.0072 4.99775 3.1254 4.99775 4.50608V8.99327C4.99775 15.5371 6.88539 20.5816 10.6067 23.9901C13.8479 26.9558 18.3717 28.5521 23.7051 28.6088C23.804 28.6074 23.9035 28.6067 24.0033 28.6067C24.1059 28.6067 24.208 28.6074 24.3096 28.6089C40.563 28.4563 43.0022 16.2749 43.0022 8.99327V4.50967C43.0022 3.129 44.1204 2.0108 45.5011 2.0108C46.8818 2.0108 48 3.129 48 4.50967V8.99327C48 17.7663 45.2818 24.3784 39.9209 28.6427C37.9717 30.1939 35.8526 31.2818 33.7321 32.035C36.3048 34.5171 37.6843 38.287 37.6843 43.1469V43.431C37.6843 44.7289 36.6236 45.7896 35.3256 45.7896C33.873 45.7896 32.6829 44.5995 32.6829 43.1469C32.6829 34.8223 27.9902 33.6628 24.3052 33.6067C24.2013 33.6076 24.0983 33.6081 23.9964 33.6081C23.9039 33.6081 23.8116 33.6077 23.7195 33.6069C18.0686 33.7073 15.3202 36.8302 15.3202 43.1469V43.431C15.3202 44.7289 14.2595 45.7896 12.9615 45.7896C11.509 45.7896 10.3188 44.5995 10.3188 43.1469C10.3208 38.2473 11.7237 34.4557 14.3375 31.9745C11.6533 30.979 9.25998 29.5377 7.22697 27.6755C2.50247 23.3429 0 16.8818 0 8.99327V4.50967C0 3.129 1.1182 2.0072 2.49888 2.0072Z" fill="#322857"/>
</svg>
