<svg viewBox="0 0 48 48" fill="none" xmlns="http://www.w3.org/2000/svg">
<path fill-rule="evenodd" clip-rule="evenodd" d="M44.3598 2.20997H2.93487V28.2193H6.22435L6.21724 11.2853H13.4247L13.4277 11.2521L17.1226 11.2853H17.9273L17.9262 11.2925L24.6019 11.3525L16.2384 22.4964L15.3763 28.2193H44.3598V2.20997ZM15.0736 30.2286H46.3695V0.200684H1.93032H0.925781V30.2286H6.22519L6.22803 36.9848V47.4193H8.3821V38.556H9.09733H11.6528V47.4193H13.8074V38.556H13.8192L15.0736 30.2286ZM26.7554 11.2967L39.392 11.252V13.2502L26.7554 13.2948V11.2967ZM26.7554 15.4045L39.392 15.3598V17.3691L26.7554 17.4026V15.4045ZM39.392 19.423L26.7554 19.4565V21.4658L39.392 21.4212V19.423ZM8.81787 4.72174H13.6847V9.71151H8.81787V4.72174Z" fill="#125A67"/>
</svg>
