<svg width="48" height="48" viewBox="0 0 48 48" fill="none" xmlns="http://www.w3.org/2000/svg">
<path fill-rule="evenodd" clip-rule="evenodd" d="M16.299 1.31689H31.2233L31.9934 3.77269H15.5845L16.299 1.31689ZM10.8968 23.4081H37.5534L38.3689 26.0537H38.3634L40.5233 33.0415L40.5228 33.0424V43.2334H40.5216V46.8499H35.186V43.2334H13.2301V46.8499H7.894V43.2334V40.0964V33.2954L7.88281 33.2762L7.894 33.24V33.0417H7.95539L10.1192 26.0537H10.1158L10.8968 23.4081ZM12.8993 26.0537L10.7403 33.0417H37.7408L35.5839 26.0537H12.8993ZM27.0456 6.52726L24.8463 19.0073L28.8039 19.7047L31.0032 7.22469L27.0456 6.52726ZM20.1701 19.0073L22.3694 6.52726L26.327 7.2247L24.1277 19.7047L20.1701 19.0073ZM17.7702 6.52558L15.56 19.0056L19.517 19.7064L21.7273 7.22637L17.7702 6.52558Z" fill="#195734"/>
</svg>
