<svg width="60" height="61" viewBox="0 0 60 61" fill="none" xmlns="http://www.w3.org/2000/svg">
<g filter="url(#filter0_d_16063_3741)">
<path d="M2 29.98C2 14.516 14.536 1.97998 30 1.97998C45.464 1.97998 58 14.516 58 29.98C58 45.444 45.464 57.98 30 57.98C14.536 57.98 2 45.444 2 29.98Z" fill="url(#paint0_linear_16063_3741)" shape-rendering="crispEdges"/>
<path d="M23.3346 16.6466H22.0013C18.0013 16.6466 16.668 19.0333 16.668 21.9799V23.3133V41.9799C16.668 43.0866 17.9213 43.7133 18.8013 43.0466L21.0813 41.3399C21.6146 40.9399 22.3613 40.9933 22.8413 41.4733L25.0546 43.6999C25.5746 44.2199 26.428 44.2199 26.948 43.6999L29.188 41.4599C29.6546 40.9933 30.4013 40.9399 30.9213 41.3399L33.2013 43.0466C34.0813 43.6999 35.3346 43.0733 35.3346 41.9799V19.3133C35.3346 17.8466 36.5346 16.6466 38.0013 16.6466H23.3346ZM21.9613 32.6599C21.228 32.6599 20.628 32.0599 20.628 31.3266C20.628 30.5933 21.228 29.9933 21.9613 29.9933C22.6946 29.9933 23.2946 30.5933 23.2946 31.3266C23.2946 32.0599 22.6946 32.6599 21.9613 32.6599ZM21.9613 27.3266C21.228 27.3266 20.628 26.7266 20.628 25.9933C20.628 25.2599 21.228 24.6599 21.9613 24.6599C22.6946 24.6599 23.2946 25.2599 23.2946 25.9933C23.2946 26.7266 22.6946 27.3266 21.9613 27.3266ZM30.0013 32.3266H26.0013C25.4546 32.3266 25.0013 31.8733 25.0013 31.3266C25.0013 30.7799 25.4546 30.3266 26.0013 30.3266H30.0013C30.548 30.3266 31.0013 30.7799 31.0013 31.3266C31.0013 31.8733 30.548 32.3266 30.0013 32.3266ZM30.0013 26.9933H26.0013C25.4546 26.9933 25.0013 26.5399 25.0013 25.9933C25.0013 25.4466 25.4546 24.9933 26.0013 24.9933H30.0013C30.548 24.9933 31.0013 25.4466 31.0013 25.9933C31.0013 26.5399 30.548 26.9933 30.0013 26.9933Z" fill="white"/>
<path d="M38.012 16.6466V18.6466C38.892 18.6466 39.732 19.0066 40.3454 19.6066C40.9854 20.2599 41.332 21.0999 41.332 21.9799V25.2066C41.332 26.1933 40.892 26.6466 39.892 26.6466H37.332V19.3266C37.332 18.9533 37.6387 18.6466 38.012 18.6466V16.6466ZM38.012 16.6466C36.532 16.6466 35.332 17.8466 35.332 19.3266V28.6466H39.892C41.9987 28.6466 43.332 27.3133 43.332 25.2066V21.9799C43.332 20.5133 42.732 19.1799 41.772 18.2066C40.7987 17.2466 39.4787 16.6599 38.012 16.6466C38.0254 16.6466 38.012 16.6466 38.012 16.6466Z" fill="white"/>
</g>
<defs>
<filter id="filter0_d_16063_3741" x="0" y="0.97998" width="60" height="60" filterUnits="userSpaceOnUse" color-interpolation-filters="sRGB">
<feFlood flood-opacity="0" result="BackgroundImageFix"/>
<feColorMatrix in="SourceAlpha" type="matrix" values="0 0 0 0 0 0 0 0 0 0 0 0 0 0 0 0 0 0 127 0" result="hardAlpha"/>
<feOffset dy="1"/>
<feGaussianBlur stdDeviation="1"/>
<feComposite in2="hardAlpha" operator="out"/>
<feColorMatrix type="matrix" values="0 0 0 0 0.0627451 0 0 0 0 0.0941176 0 0 0 0 0.156863 0 0 0 0.04 0"/>
<feBlend mode="normal" in2="BackgroundImageFix" result="effect1_dropShadow_16063_3741"/>
<feBlend mode="normal" in="SourceGraphic" in2="effect1_dropShadow_16063_3741" result="shape"/>
</filter>
<linearGradient id="paint0_linear_16063_3741" x1="101.892" y1="57.9799" x2="-60.9374" y2="44.6695" gradientUnits="userSpaceOnUse">
<stop offset="0.111321" stop-color="#1F86FF" stop-opacity="0.81"/>
<stop offset="0.826406" stop-color="#8306FF"/>
</linearGradient>
</defs>
</svg>
