<svg width="32" height="32" viewBox="0 0 32 32" fill="none" xmlns="http://www.w3.org/2000/svg">
<g clip-path="url(#clip0_1703_1999)">
<path fill-rule="evenodd" clip-rule="evenodd" d="M18.7783 15.4063C18.824 15.4473 18.8528 15.5038 18.8592 15.5649C18.9939 16.8715 18.8506 18.1919 18.4385 19.4391C17.9713 20.5008 17.3284 21.4762 16.5369 22.3242C15.2016 23.5235 13.4625 24.1742 11.6679 24.1461C9.58908 24.1422 7.59042 23.344 6.08085 21.9148C4.57129 20.4857 3.66492 18.5337 3.54725 16.4582C3.42959 14.3828 4.10953 12.3408 5.44789 10.7502C6.78626 9.15962 8.68191 8.14061 10.7469 7.9017C13.6377 7.57767 16.2726 8.82836 18.0122 11.1023C18.0321 11.1291 18.0465 11.1596 18.0546 11.192C18.0626 11.2245 18.0642 11.2582 18.0592 11.2912C18.0542 11.3242 18.0426 11.3559 18.0253 11.3845C18.008 11.4131 17.9851 11.4379 17.9581 11.4576L15.9912 12.8561C15.9383 12.8926 15.8733 12.9074 15.8098 12.8973C15.7463 12.8873 15.6891 12.8532 15.6501 12.8021C15.1653 12.1734 14.5387 11.6685 13.8213 11.3286C13.104 10.9887 12.3163 10.8235 11.5229 10.8465C10.1561 10.8657 8.85301 11.4271 7.90018 12.4071C6.94735 13.3871 6.42284 14.7055 6.44207 16.0723C6.46127 17.439 7.02265 18.7421 8.00268 19.695C8.98271 20.6478 10.3011 21.1723 11.6679 21.1531C13.7201 21.1531 15.7098 19.4448 15.7098 17.998H12.2989C12.2662 17.998 12.2338 17.9915 12.2036 17.9789C12.1734 17.9663 12.146 17.9478 12.123 17.9246C12.1 17.9013 12.0818 17.8737 12.0696 17.8434C12.0573 17.8131 12.0512 17.7806 12.0516 17.7479V15.5933C12.0512 15.5604 12.0574 15.5277 12.0698 15.4972C12.0823 15.4666 12.1007 15.4389 12.124 15.4156C12.1473 15.3923 12.175 15.3739 12.2055 15.3614C12.2361 15.349 12.2688 15.3428 12.3017 15.3432H18.6119C18.6733 15.3429 18.7326 15.3654 18.7783 15.4063ZM25.1125 8.12058H27.7446C27.7681 8.11943 27.7915 8.12304 27.8136 8.13124C27.8356 8.13943 27.8557 8.15204 27.8728 8.16826C27.8897 8.18448 27.9033 8.20397 27.9125 8.2256C27.9218 8.2472 27.9265 8.27047 27.9265 8.29395V18.3164C27.9265 22.3327 25.1267 24.0694 22.361 24.0694C20.8689 24.0642 19.439 23.4708 18.3817 22.418C18.3448 22.3798 18.3242 22.3289 18.3242 22.2758C18.3242 22.2228 18.3448 22.1719 18.3817 22.1337L20.2207 20.2975C20.239 20.2783 20.2611 20.2629 20.2855 20.2525C20.3099 20.242 20.3362 20.2365 20.3628 20.2365C20.3894 20.2365 20.4157 20.242 20.4402 20.2525C20.4646 20.2629 20.4866 20.2783 20.505 20.2975C20.9987 20.7909 21.6659 21.0715 22.3639 21.0792C23.6089 21.0792 24.9391 20.3544 24.9391 18.3192V8.29395C24.9391 8.24797 24.9574 8.20387 24.9899 8.17136C25.0224 8.13885 25.0665 8.12058 25.1125 8.12058Z" fill="#30733E"/>
</g>
<defs>
<clipPath id="clip0_1703_1999">
<rect width="32" height="32" fill="white"/>
</clipPath>
</defs>
</svg>
