<svg width="32" height="32" viewBox="0 0 32 32" fill="none" xmlns="http://www.w3.org/2000/svg">
<g clip-path="url(#clip0_1703_8480)">
<path fill-rule="evenodd" clip-rule="evenodd" d="M25.7159 9.27246L17.7792 18.273L0.142578 9.34792L16.8152 12.8646L25.7159 9.27246Z" fill="#CC2229" stroke="#CC2229" stroke-width="0.765192" stroke-miterlimit="2.613"/>
<path fill-rule="evenodd" clip-rule="evenodd" d="M1.72852 27.1446L11.0309 16.5977L31.6996 27.0574L12.1617 22.9371L1.72852 27.1446Z" fill="#505E86" stroke="#505E86" stroke-width="0.765192" stroke-miterlimit="2.613"/>
<path fill-rule="evenodd" clip-rule="evenodd" d="M16.2026 6.04875C15.4681 6.10918 14.7875 6.45834 14.31 7.01973C13.8325 7.58111 13.597 8.30891 13.6552 9.04361C13.7159 9.77834 14.0654 10.459 14.6273 10.9364C15.1891 11.4137 15.9173 11.6488 16.6522 11.59C17.3865 11.5293 18.0668 11.18 18.5441 10.6187C19.0214 10.0573 19.2568 9.32966 19.1986 8.59513C19.1376 7.86071 18.7881 7.18036 18.2266 6.7031C17.665 6.22583 16.9373 5.99055 16.2026 6.04875Z" fill="#505E86" stroke="#505E86" stroke-width="0.765192" stroke-miterlimit="2.613"/>
</g>
<defs>
<clipPath id="clip0_1703_8480">
<rect width="32" height="32" fill="white"/>
</clipPath>
</defs>
</svg>
