<svg width="32" height="32" viewBox="0 0 32 32" fill="none" xmlns="http://www.w3.org/2000/svg">
<path d="M3.09179 12.6118V15.9938C3.09179 18.5408 5.16816 20.6055 7.72947 20.6055H8.77926C9.56656 21.8709 10.658 22.9294 11.9523 23.68H7.72947C3.46061 23.68 0 20.2388 0 15.9938V12.6118H3.09179Z" fill="#2E69FF"/>
<path d="M32.0002 20.6055V23.68H21.1301H16.5413C13.9898 23.68 11.7214 22.4747 10.2804 20.6055C9.26228 19.2848 8.65723 17.6327 8.65723 15.84C8.65723 11.5101 12.187 8 16.5413 8C20.8955 8 24.4254 11.5101 24.4254 15.84C24.4254 17.0511 24.1492 18.198 23.6561 19.222H19.9176C20.7921 18.3586 21.3336 17.1622 21.3336 15.84C21.3336 13.2081 19.188 11.0745 16.5413 11.0745C13.8946 11.0745 11.749 13.2081 11.749 15.84C11.749 18.4719 13.8946 20.6055 16.5413 20.6055H22.8022H24.3031H32.0002Z" fill="#2E69FF"/>
</svg>
