<svg width="24" height="24" viewBox="0 0 24 24" fill="none" xmlns="http://www.w3.org/2000/svg">
<path d="M18.0279 7.97266C17.834 9.96328 16.9848 14.7977 16.555 17.027C16.3715 17.9715 16.015 18.2863 15.6691 18.3168C14.9142 18.3828 14.3429 17.8344 13.609 17.3672C12.4662 16.641 11.8162 16.1891 10.7102 15.4781C9.42592 14.6605 10.2594 14.2086 10.988 13.4723C11.182 13.2793 14.5054 10.3492 14.5683 10.0852C14.5787 10.0496 14.584 9.92773 14.5054 9.86172C14.4267 9.7957 14.3166 9.82109 14.238 9.83633C14.1227 9.86003 12.295 11.0297 8.75495 13.3453C8.23775 13.6906 7.76772 13.8582 7.34487 13.848C6.87834 13.8379 5.98721 13.5941 5.32149 13.3859C4.50899 13.132 3.85899 12.9949 3.91665 12.5582C3.9446 12.3314 4.26786 12.0995 4.88641 11.8625C8.67458 10.2646 11.2012 9.21003 12.4662 8.69883C16.0779 7.24648 16.8275 6.99258 17.315 6.98242C17.4251 6.98242 17.661 7.00781 17.8183 7.12969C17.9209 7.2171 17.9863 7.33838 18.0017 7.46992C18.0301 7.636 18.0389 7.80466 18.0279 7.97266Z" fill="#3A3943"/>
</svg>
