<svg width="32" height="32" viewBox="0 0 49 48" fill="none" xmlns="http://www.w3.org/2000/svg">
<path fill-rule="evenodd" clip-rule="evenodd" d="M38.3096 36.6609C36.0063 38.6732 33.5215 40.7896 30.3216 40.1285C29.4916 39.9428 28.7299 39.5291 28.1224 38.9339C27.5148 38.3388 27.0855 37.5857 26.8828 36.7597C26.5073 35.2793 26.6007 33.8599 26.7894 32.3309L39.7775 32.3058L39.4253 31.8494C32.8711 23.8992 27.668 14.9249 24.1896 5.4708C20.449 15.0452 15.2009 24.5029 8.95212 32.3561L21.6815 32.3309C21.606 34.0809 22.0031 36.2189 21.2179 37.7209C20.4256 39.3703 18.5679 40.1878 16.8503 40.2237C11.7172 39.7314 8.3035 35.087 6.35052 30.6942C4.07774 25.2934 4.91501 17.8822 8.48678 13.2683C13.4581 6.47694 22.2349 3.73522 30.4151 6.3368C35.4008 7.94661 39.8386 11.9406 42.0269 17.0234C44.6213 23.3207 43.0887 31.7416 38.3096 36.6609ZM45.6508 13.3653C43.7391 9.91755 40.9274 6.67098 37.7526 4.60301C30.6199 -0.258761 20.0303 -0.643247 12.576 3.44955C4.93657 7.48846 -0.334854 15.9346 0.218519 25.1083C0.687448 34.9415 7.65312 43.508 16.6634 46.1922C26.2288 49.3094 37.0483 45.9874 43.2343 38.3947C48.5668 31.6967 49.9161 21.1557 45.6508 13.3653Z" fill="#157946"/>
</svg>
