<svg width="32" height="32" viewBox="0 0 32 32" fill="none" xmlns="http://www.w3.org/2000/svg">
<path d="M11.6804 13.5039C9.45644 13.5039 7.64844 15.4079 7.64844 17.7519C7.64844 20.0959 9.45644 21.9999 11.6804 21.9999C13.9044 21.9999 15.7124 20.0959 15.7124 17.7519C15.7124 15.4079 13.9044 13.5039 11.6804 13.5039ZM13.7284 17.7519C13.7284 18.9759 12.8084 19.9679 11.6884 19.9679C10.5604 19.9679 9.64044 18.9759 9.64044 17.7519C9.64044 16.5279 10.5604 15.5359 11.6884 15.5359C12.8164 15.5359 13.7284 16.5279 13.7284 17.7519Z" fill="#DD463C"/>
<path d="M19.192 10H17V21.792H19.192V10Z" fill="#DD463C"/>
<path d="M22.7281 10H20.5361V21.792H22.7281V10Z" fill="#DD463C"/>
<path d="M31.6001 15.9439C30.9761 14.4159 29.6241 13.5039 27.9841 13.5039C25.7601 13.5039 23.9521 15.4079 23.9521 17.7519C23.9521 20.0959 25.7601 21.9999 27.9841 21.9999C28.8321 21.9999 29.5361 21.7439 30.1521 21.2159L30.1681 21.7919H32.0001V18.8399C32.0001 17.8879 31.9521 16.7999 31.6001 15.9439ZM30.0321 17.7519C30.0321 18.9759 29.1121 19.9679 27.9921 19.9679C26.8641 19.9679 25.9441 18.9759 25.9441 17.7519C25.9441 16.5279 26.8641 15.5359 27.9921 15.5359C29.1121 15.5359 30.0321 16.5279 30.0321 17.7519Z" fill="#DD463C"/>
<path d="M7.416 13.8079L7.392 13.7119H0.36V15.5359H4.04L0 21.7359L0.008 21.7919H7.136V19.8879H3.456L7.416 13.8079Z" fill="#DD463C"/>
</svg>
