<svg width="48" height="48" viewBox="0 0 48 48" fill="none" xmlns="http://www.w3.org/2000/svg">
<path fill-rule="evenodd" clip-rule="evenodd" d="M17.5431 2.82031L14.7588 4.42737L14.8619 4.6059L10.1919 7.18915L4.92334 10.2251L6.81033 15.7172L10.1919 15.5247V38.6345L11.1964 38.88L16.663 31.881H32.156L36.87 38.5341L37.8413 38.0764V18.643L40.4584 15.7061H43.067H45.9357V13.2503H43.067H39.9079H39.3574L38.9911 13.6613L36.3831 16.588H34.7601H27.5381H20.0149L20.0175 15.2053H30.9668V13.24H20.0212L20.0232 12.1591H30.9668V10.1938H19.8164L19.1954 9.40771H30.9668V7.44238H17.6426L16.9708 6.592L19.033 5.4017L17.5431 2.82031ZM33.5239 42.3293H14.8311L1.96754 34.86L0.734375 36.9838L13.8839 44.6191L14.1698 44.7852H14.5005H33.8571H34.1904L34.4779 44.6167L47.0137 37.2716L45.7722 35.1527L33.5239 42.3293Z" fill="#A91F4C"/>
</svg>
