<svg width="32" height="32" viewBox="0 0 32 32" fill="none" xmlns="http://www.w3.org/2000/svg">
<g clip-path="url(#clip0_1703_13765)">
<g clip-path="url(#clip1_1703_13765)">
<path d="M8.50579 10.4046V21.5975H7.32277C7.32277 18.2525 7.25612 14.9117 7.25612 11.5626C7.25612 10.8128 6.70626 10.8794 6.70626 10.8794V10.4004H8.50579V10.4046ZM29.1254 14.3202C29.5503 14.3202 31.354 14.4993 31.354 16.1572C31.354 17.7318 30.1085 18.215 29.4253 18.2608L29.5295 18.265C31.0208 18.3442 31.0499 20.9351 31.6748 21.0559H31.9997V21.5933H29.9169V21.0559H30.2376C30.0377 20.6061 29.8794 19.9271 29.642 19.2897C29.3795 18.6024 28.9505 18.3567 28.6547 18.265H28.1757V17.7152H28.8047C28.8047 17.7152 29.921 17.4985 29.921 16.2905C29.921 15.0825 29.4253 14.8659 28.5839 14.8659H27.3217V16.3863H26.6636V16.1905C26.6511 15.774 26.6469 14.8617 25.9221 14.8617H24.6058C24.3183 14.8617 23.9018 14.8826 23.9018 15.3783V17.0487C23.9934 17.4902 24.5933 17.6193 25.0057 17.6568H25.6347V18.315H23.9018V19.6646C23.9018 20.5103 24.1184 21.0018 25.3181 21.0018C26.3428 21.0018 26.6511 20.202 26.726 19.9604V19.4855H27.3217V21.56H21.8273V21.0809C21.8273 21.0809 22.4438 20.806 22.4438 20.402C22.4438 20.0021 22.4438 15.6865 22.4438 15.4824C22.4438 15.27 22.3105 14.9492 22.1689 14.8701H21.4441L18.7615 21.5975H18.0241L15.254 14.316H16.7578L18.8781 19.623L20.6526 15.1741C20.511 14.7493 20.0861 14.8034 20.0861 14.8034L20.0986 14.7992H20.0861V14.3202H29.1254ZM5.72735 14.8909V14.2952H6.448V16.2405H5.61488C5.61488 16.2405 5.32329 14.6576 3.54875 14.7576C1.97833 14.8534 1.62009 16.1364 1.60342 17.761C1.59093 19.3856 2.36989 21.1143 3.93198 21.1309C5.68153 21.1476 5.91064 19.9521 5.91064 19.9521H6.43133V21.2142C5.96895 21.485 4.86507 21.7474 3.882 21.7349C1.61592 21.7141 -0.0919679 20.4103 0.00384051 17.6902C0.0954833 14.9534 2.3324 14.1369 3.51543 14.1286C4.69845 14.1203 5.14417 14.4285 5.72735 14.8909ZM14.7708 14.316V14.8701V16.3905H14.1127V16.1947C14.1002 15.7782 14.0044 14.8659 13.3587 14.8659H12.0549C11.7674 14.8659 11.3509 14.8867 11.3509 15.3824V17.0528C11.4425 17.4944 12.0424 17.6235 12.4548 17.661H13.0796V18.3192H11.3467V19.6688C11.3467 20.5144 11.5633 21.006 12.763 21.006C13.7878 21.006 14.096 20.2062 14.171 19.9646V19.4897H14.7667V21.5642H9.29309V21.0851C9.29309 21.0851 9.90543 20.8102 9.90543 20.4061C9.90543 20.0062 9.91793 19.3564 9.91793 19.3564V16.5071C9.91793 16.5071 9.90543 15.8573 9.90543 15.4574C9.90543 15.0533 9.29309 14.7743 9.29309 14.7743V14.316H14.7708Z" fill="#333333"/>
</g>
</g>
<defs>
<clipPath id="clip0_1703_13765">
<rect width="32" height="32" fill="white"/>
</clipPath>
<clipPath id="clip1_1703_13765">
<rect width="32" height="11.3387" fill="white" transform="translate(0 10.4004)"/>
</clipPath>
</defs>
</svg>
