<svg width="32" height="32" viewBox="0 0 32 32" fill="none" xmlns="http://www.w3.org/2000/svg">
<path d="M16.8677 13.3182C16.1623 12.7525 15.2224 12.3975 14.0321 12.3975C11.5175 12.3975 9.47799 14.5734 9.47799 17.2567C9.47799 19.9399 11.5175 22.1185 14.0321 22.1185C15.2245 22.1185 16.1623 21.764 16.8677 21.1977V21.9408H19.3127V12.5694H16.8677V13.3182ZM14.4004 19.8672C13.0317 19.8672 11.9235 18.6997 11.9235 17.2572C11.9235 15.8147 13.0317 14.6493 14.4004 14.6493C15.0923 14.6493 15.7559 14.9242 16.2452 15.4134C16.7345 15.9027 17.0094 16.5663 17.0094 17.2583C17.0094 17.9502 16.7345 18.6138 16.2452 19.1031C15.7559 19.5924 15.0923 19.8672 14.4004 19.8672ZM29.078 21.9429H31.5227V14.4232H29.078V21.9429ZM28.6001 12.0021C28.6001 12.4529 28.7791 12.8853 29.098 13.2041C29.4167 13.5229 29.8492 13.7019 30.2999 13.7019C30.7509 13.7019 31.1832 13.5229 31.5021 13.2041C31.8207 12.8853 32 12.4529 32 12.0021C32 10.7013 30.9429 9.79431 29.4126 9.76353C27.635 9.7301 25.3919 10.6955 24.3878 13.6643V12.5694H21.9445V21.9429H24.3884V16.494C24.3884 12.9844 26.3908 10.135 29.3977 10.1653C29.6767 10.1699 29.9534 10.2159 30.2186 10.3017C29.7825 10.3231 29.3708 10.5116 29.0696 10.8282C28.7683 11.1447 28.6004 11.5651 28.6007 12.0021H28.6001ZM9.72637 12.5694H6.27303L2.44499 16.2006V9.86861H0V21.9429H2.44499V18.5293L6.27303 21.9429H9.70728L4.67715 17.2662L9.72637 12.5694Z" fill="#991E66"/>
</svg>
