<svg width="32" height="32" viewBox="0 0 32 32" fill="none" xmlns="http://www.w3.org/2000/svg">
<g clip-path="url(#clip0_1703_5416)">
<path d="M26.632 25.0366C26.632 25.7276 27.1635 26.2591 27.8015 26.2591C28.4925 26.2591 29.024 25.7276 29.024 25.0366C29.024 24.3987 28.4925 23.8139 27.8015 23.8139C27.1635 23.8139 26.632 24.3987 26.632 25.0366ZM9.09 22.8571C9.09 23.4418 9.5155 23.8671 10.1 23.8671C10.6315 23.8671 11.057 23.4418 11.057 22.8571C11.057 22.3256 10.6315 21.9004 10.1 21.9004C9.5155 21.9004 9.09 22.3256 9.09 22.8571ZM2.9237 18.4984C2.9237 17.6479 2.2858 17.01 1.4884 17.01C0.6379 17.01 0 17.6479 0 18.4984C0 19.2957 0.6379 19.9335 1.4884 19.9335C2.2858 19.9335 2.9237 19.2957 2.9237 18.4984ZM7.4955 22.9634C7.4955 22.2724 6.9635 21.7409 6.2725 21.7409C5.6345 21.7409 5.05 22.2724 5.05 22.9634C5.05 23.6013 5.6345 24.1861 6.2725 24.1861C6.9635 24.1861 7.4955 23.6013 7.4955 22.9634ZM12.386 5.04985C12.386 4.41196 11.854 3.82724 11.163 3.82724C10.472 3.82724 9.9405 4.41196 9.9405 5.04985C9.9405 5.74085 10.472 6.27245 11.163 6.27245C11.854 6.27245 12.386 5.74085 12.386 5.04985ZM18.0205 16C18.0205 15.3622 17.489 14.7774 16.851 14.7774C16.16 14.7774 15.6285 15.3622 15.6285 16C15.6285 16.691 16.16 17.2226 16.851 17.2226C17.489 17.2226 18.0205 16.691 18.0205 16ZM22.592 24.9303C21.954 24.9303 21.3695 25.4618 21.3695 26.0996C21.3695 26.7907 21.954 27.3223 22.592 27.3223C23.283 27.3223 23.8145 26.7907 23.8145 26.0996C23.8145 25.4618 23.283 24.9303 22.592 24.9303ZM25.4625 3.66777C25.4625 2.97674 24.931 2.44518 24.24 2.44518C23.602 2.44518 23.0705 2.97674 23.0705 3.66777C23.0705 4.30565 23.602 4.83721 24.24 4.83721C24.931 4.83721 25.4625 4.30565 25.4625 3.66777ZM26.898 27.2691C26.898 26.6313 26.3665 26.0996 25.6755 26.0996C25.0375 26.0996 24.4525 26.6313 24.4525 27.2691C24.4525 27.9601 25.0375 28.4917 25.6755 28.4917C26.3665 28.4917 26.898 27.9601 26.898 27.2691ZM29.1835 16C29.1835 15.3622 28.652 14.7774 27.961 14.7774C27.323 14.7774 26.7915 15.3622 26.7915 16C26.7915 16.691 27.323 17.2226 27.961 17.2226C28.652 17.2226 29.1835 16.691 29.1835 16ZM32.001 19.0299C32.001 18.1794 31.257 17.4352 30.4065 17.4352C29.556 17.4352 28.8115 18.1794 28.8115 19.0299C28.8115 19.9335 29.556 20.6246 30.4065 20.6246C31.257 20.6246 32.001 19.9335 32.001 19.0299ZM5.422 14.3521C5.422 13.7143 4.8375 13.1295 4.1995 13.1295C3.5085 13.1295 2.97685 13.7143 2.97685 14.3521C2.97685 15.0432 3.5085 15.5747 4.1995 15.5747C4.8375 15.5747 5.422 15.0432 5.422 14.3521ZM7.442 8.77075C7.442 8.2392 7.017 7.81395 6.4855 7.81395C5.9005 7.81395 5.4755 8.2392 5.4755 8.77075C5.4755 9.3555 5.9005 9.78075 6.4855 9.78075C7.017 9.78075 7.442 9.3555 7.442 8.77075ZM11.057 9.24915C11.057 8.55815 10.5255 8.0266 9.834 8.0266C9.1965 8.0266 8.6645 8.55815 8.6645 9.24915C8.6645 9.88705 9.1965 10.4718 9.834 10.4718C10.5255 10.4718 11.057 9.88705 11.057 9.24915ZM12.2265 29.9269C12.2265 29.2891 11.6945 28.7575 11.0035 28.7575C10.366 28.7575 9.781 29.2891 9.781 29.9269C9.781 30.618 10.366 31.1495 11.0035 31.1495C11.6945 31.1495 12.2265 30.618 12.2265 29.9269ZM15.2565 30.7243C15.2565 30.0332 14.7245 29.5016 14.0335 29.5016C13.396 29.5016 12.864 30.0332 12.864 30.7243C12.864 31.3622 13.396 31.8937 14.0335 31.8937C14.7245 31.8937 15.2565 31.3622 15.2565 30.7243ZM18.2865 4.03987C18.2865 3.40199 17.7545 2.87043 17.0635 2.87043C16.426 2.87043 15.841 3.40199 15.841 4.03987C15.841 4.7309 16.426 5.26245 17.0635 5.26245C17.7545 5.26245 18.2865 4.7309 18.2865 4.03987ZM19.4025 24.8771C19.4025 24.3455 18.9775 23.9202 18.446 23.9202C17.914 23.9202 17.489 24.3455 17.489 24.8771C17.489 25.4086 17.914 25.8871 18.446 25.8871C18.9775 25.8871 19.4025 25.4086 19.4025 24.8771ZM23.549 16C23.549 15.3622 23.0175 14.7774 22.3265 14.7774C21.6885 14.7774 21.157 15.3622 21.157 16C21.157 16.691 21.6885 17.2226 22.3265 17.2226C23.0175 17.2226 23.549 16.691 23.549 16ZM26.26 16C26.26 15.4153 25.7815 14.9369 25.197 14.9369C24.559 14.9369 24.0805 15.4153 24.0805 16C24.0805 16.6378 24.559 17.1163 25.197 17.1163C25.7815 17.1163 26.26 16.6378 26.26 16ZM31.948 13.1827C31.948 12.5449 31.363 12.0133 30.7255 12.0133C30.034 12.0133 29.5025 12.5449 29.5025 13.1827C29.5025 13.8737 30.034 14.4053 30.7255 14.4053C31.363 14.4053 31.948 13.8737 31.948 13.1827ZM26.579 23.0166C27.217 23.0166 27.7485 22.4851 27.7485 21.794C27.7485 21.1562 27.217 20.6246 26.579 20.6246C25.888 20.6246 25.3565 21.1562 25.3565 21.794C25.3565 22.4851 25.888 23.0166 26.579 23.0166ZM14.087 12.0133C13.396 12.0133 12.864 12.5449 12.864 13.1827C12.864 13.8737 13.396 14.4053 14.087 14.4053C14.7245 14.4053 15.3095 13.8737 15.3095 13.1827C15.3095 12.5449 14.7245 12.0133 14.087 12.0133ZM12.386 8.77075C13.077 8.77075 13.6085 8.2392 13.6085 7.54815C13.6085 6.9103 13.077 6.37875 12.386 6.37875C11.748 6.37875 11.2165 6.9103 11.2165 7.54815C11.2165 8.2392 11.748 8.77075 12.386 8.77075ZM15.3095 18.8704C15.3095 18.2325 14.7245 17.701 14.087 17.701C13.396 17.701 12.864 18.2325 12.864 18.8704C12.864 19.5614 13.396 20.093 14.087 20.093C14.7245 20.093 15.3095 19.5614 15.3095 18.8704ZM15.097 16C15.097 15.4684 14.6185 14.9901 14.087 14.9901C13.502 14.9901 13.077 15.4684 13.077 16C13.077 16.5847 13.502 17.01 14.087 17.01C14.6185 17.01 15.097 16.5847 15.097 16ZM14.406 6.85715C14.406 7.3887 14.831 7.81395 15.3625 7.81395C15.894 7.81395 16.3195 7.3887 16.3195 6.85715C16.3195 6.3256 15.894 5.90035 15.3625 5.90035C14.831 5.90035 14.406 6.3256 14.406 6.85715ZM16.16 13.1827C16.16 13.8737 16.6915 14.4053 17.3825 14.4053C18.0205 14.4053 18.6055 13.8737 18.6055 13.1827C18.6055 12.5449 18.0205 12.0133 17.3825 12.0133C16.6915 12.0133 16.16 12.5449 16.16 13.1827ZM16.107 18.8704C16.107 19.6677 16.7445 20.3057 17.542 20.3057C18.3395 20.3057 18.9775 19.6677 18.9775 18.8704C18.9775 18.0731 18.3395 17.4352 17.542 17.4352C16.7445 17.4352 16.107 18.0731 16.107 18.8704ZM18.552 16C18.552 16.5847 19.0305 17.01 19.562 17.01C20.147 17.01 20.572 16.5847 20.572 16C20.572 15.4684 20.147 14.9901 19.562 14.9901C19.0305 14.9901 18.552 15.4684 18.552 16ZM19.6685 18.8704C19.6685 19.5614 20.253 20.093 20.891 20.093C21.582 20.093 22.1135 19.5614 22.1135 18.8704C22.1135 18.2325 21.582 17.701 20.891 17.701C20.253 17.701 19.6685 18.2325 19.6685 18.8704ZM19.9875 23.6545C19.9875 24.2923 20.519 24.8239 21.21 24.8239C21.848 24.8239 22.4325 24.2923 22.4325 23.6545C22.4325 22.9634 21.848 22.4319 21.21 22.4319C20.519 22.4319 19.9875 22.9634 19.9875 23.6545ZM19.456 13.1827C19.456 13.8737 20.0405 14.4053 20.6785 14.4053C21.3695 14.4053 21.901 13.8737 21.901 13.1827C21.901 12.5449 21.3695 12.0133 20.6785 12.0133C20.0405 12.0133 19.456 12.5449 19.456 13.1827ZM19.934 8.3455C19.934 9.03655 20.466 9.5681 21.157 9.5681C21.7945 9.5681 22.3795 9.03655 22.3795 8.3455C22.3795 7.6545 21.7945 7.1229 21.157 7.1229C20.466 7.1229 19.934 7.6545 19.934 8.3455ZM22.22 21.5282C22.22 22.2192 22.7515 22.7509 23.4425 22.7509C24.0805 22.7509 24.612 22.2192 24.612 21.5282C24.612 20.8904 24.0805 20.3588 23.4425 20.3588C22.7515 20.3588 22.22 20.8904 22.22 21.5282ZM23.23 18.8704C23.23 19.5614 23.7615 20.093 24.3995 20.093C25.0905 20.093 25.622 19.5614 25.622 18.8704C25.622 18.2325 25.0905 17.701 24.3995 17.701C23.7615 17.701 23.23 18.2325 23.23 18.8704ZM24.7715 25.2491C25.3565 25.2491 25.7815 24.8239 25.7815 24.2924C25.7815 23.7077 25.3565 23.2824 24.7715 23.2824C24.24 23.2824 23.7615 23.7077 23.7615 24.2924C23.7615 24.8239 24.24 25.2491 24.7715 25.2491ZM21.6885 29.0233C21.6885 29.8206 22.3265 30.4585 23.1235 30.4585C23.921 30.4585 24.559 29.8206 24.559 29.0233C24.559 28.2259 23.921 27.5881 23.1235 27.5881C22.3265 27.5881 21.6885 28.2259 21.6885 29.0233ZM19.0305 30.5117C19.0305 31.1495 19.562 31.7342 20.253 31.7342C20.891 31.7342 21.4225 31.1495 21.4225 30.5117C21.4225 29.8206 20.891 29.289 20.253 29.289C19.562 29.289 19.0305 29.8206 19.0305 30.5117ZM18.2865 27.4818C18.2865 28.2791 18.924 28.917 19.7215 28.917C20.519 28.917 21.157 28.2791 21.157 27.4818C21.157 26.6844 20.519 26.0465 19.7215 26.0465C18.924 26.0465 18.2865 26.6844 18.2865 27.4818ZM15.9475 30.7774C15.9475 31.4684 16.479 32 17.17 32C17.861 32 18.3925 31.4684 18.3925 30.7774C18.3925 30.1395 17.861 29.5548 17.17 29.5548C16.479 29.5548 15.9475 30.1395 15.9475 30.7774ZM15.522 28.0133C15.522 28.6511 16.0535 29.1827 16.6915 29.1827C17.3825 29.1827 17.914 28.6511 17.914 28.0133C17.914 27.3223 17.3825 26.7907 16.6915 26.7907C16.0535 26.7907 15.522 27.3223 15.522 28.0133ZM15.416 26.3654C16.107 26.3654 16.6385 25.8339 16.6385 25.196C16.6385 24.505 16.107 23.9734 15.416 23.9734C14.778 23.9734 14.2465 24.505 14.2465 25.196C14.2465 25.8339 14.778 26.3654 15.416 26.3654ZM12.6515 27.8006C12.6515 28.4385 13.13 28.917 13.768 28.917C14.406 28.917 14.9375 28.4385 14.9375 27.8006C14.9375 27.1628 14.406 26.6313 13.768 26.6313C13.13 26.6313 12.6515 27.1628 12.6515 27.8006ZM12.439 25.5149C13.0235 25.5149 13.502 25.0366 13.502 24.4519C13.502 23.9202 13.0235 23.4419 12.439 23.4419C11.9075 23.4419 11.429 23.9202 11.429 24.4519C11.429 25.0366 11.9075 25.5149 12.439 25.5149ZM7.017 28.5448C7.017 29.2359 7.5485 29.7675 8.2395 29.7675C8.8775 29.7675 9.409 29.2359 9.409 28.5448C9.409 27.907 8.8775 27.3754 8.2395 27.3754C7.5485 27.3754 7.017 27.907 7.017 28.5448ZM7.017 18.7641C7.708 18.7641 8.2395 18.2325 8.2395 17.5415C8.2395 16.9037 7.708 16.3721 7.017 16.3721C6.379 16.3721 5.8475 16.9037 5.8475 17.5415C5.8475 18.2325 6.379 18.7641 7.017 18.7641ZM8.027 18.9767C7.2295 18.9767 6.5385 19.6146 6.5385 20.4119C6.5385 21.2624 7.2295 21.9004 8.027 21.9004C8.824 21.9004 9.5155 21.2624 9.5155 20.4119C9.5155 19.6146 8.824 18.9767 8.027 18.9767ZM6.06 20.3057C6.06 19.6146 5.5285 19.083 4.8375 19.083C4.1995 19.083 3.6145 19.6146 3.6145 20.3057C3.6145 20.9435 4.1995 21.5282 4.8375 21.5282C5.5285 21.5282 6.06 20.9435 6.06 20.3057ZM4.1465 18.3389C4.678 18.3389 5.1565 17.9136 5.1565 17.382C5.1565 16.8505 4.678 16.3721 4.1465 16.3721C3.6145 16.3721 3.1895 16.8505 3.1895 17.382C3.1895 17.9136 3.6145 18.3389 4.1465 18.3389ZM3.774 11.4285C3.774 12.0665 4.306 12.598 4.997 12.598C5.6345 12.598 6.1665 12.0665 6.1665 11.4285C6.1665 10.7375 5.6345 10.206 4.997 10.206C4.306 10.206 3.774 10.7375 3.774 11.4285ZM7.017 13.3422C6.326 13.3422 5.794 13.8737 5.794 14.5117C5.794 15.2027 6.326 15.7342 7.017 15.7342C7.6545 15.7342 8.2395 15.2027 8.2395 14.5117C8.2395 13.8737 7.6545 13.3422 7.017 13.3422ZM6.804 11.6412C6.804 12.3322 7.336 12.8638 8.027 12.8638C8.6645 12.8638 9.1965 12.3322 9.1965 11.6412C9.1965 11.0033 8.6645 10.4718 8.027 10.4718C7.336 10.4718 6.804 11.0033 6.804 11.6412ZM7.6015 6.6445C7.6015 7.1761 8.08 7.60135 8.6115 7.60135C9.143 7.60135 9.5685 7.1761 9.5685 6.6445C9.5685 6.11295 9.143 5.6877 8.6115 5.6877C8.08 5.6877 7.6015 6.11295 7.6015 6.6445ZM9.781 25.1429C9.781 24.3455 9.143 23.7076 8.346 23.7076C7.5485 23.7076 6.9105 24.3455 6.9105 25.1429C6.9105 25.9402 7.5485 26.5781 8.346 26.5781C9.143 26.5781 9.781 25.9402 9.781 25.1429ZM4.5715 26.6313C4.5715 27.3223 5.103 27.8538 5.741 27.8538C6.432 27.8538 6.9635 27.3223 6.9635 26.6313C6.9635 25.9934 6.432 25.4618 5.741 25.4618C5.103 25.4618 4.5715 25.9934 4.5715 26.6313ZM2.5516 24.2392C2.5516 24.8771 3.083 25.4618 3.774 25.4618C4.412 25.4618 4.9435 24.8771 4.9435 24.2392C4.9435 23.5482 4.412 23.0166 3.774 23.0166C3.083 23.0166 2.5516 23.5482 2.5516 24.2392ZM1.16945 21.5814C1.16945 22.2724 1.70105 22.804 2.33895 22.804C3.03 22.804 3.5615 22.2724 3.5615 21.5814C3.5615 20.9435 3.03 20.3588 2.33895 20.3588C1.70105 20.3588 1.16945 20.9435 1.16945 21.5814ZM1.2758 14.1396C0.584749 14.1396 0.0531502 14.6711 0.0531502 15.3622C0.0531502 16 0.584749 16.5847 1.2758 16.5847C1.9137 16.5847 2.4984 16 2.4984 15.3622C2.4984 14.6711 1.9137 14.1396 1.2758 14.1396ZM1.7542 11.0565C1.06315 11.0565 0.531601 11.588 0.531601 12.279C0.531601 12.917 1.06315 13.5016 1.7542 13.5016C2.3921 13.5016 2.9237 12.917 2.9237 12.279C2.9237 11.588 2.3921 11.0565 1.7542 11.0565ZM2.81735 8.1329C2.17945 8.1329 1.6479 8.66445 1.6479 9.3555C1.6479 9.99335 2.17945 10.578 2.81735 10.578C3.5085 10.578 4.04 9.99335 4.04 9.3555C4.04 8.66445 3.5085 8.1329 2.81735 8.1329ZM4.5185 5.52825C3.8805 5.52825 3.296 6.0598 3.296 6.69765C3.296 7.3887 3.8805 7.92025 4.5185 7.92025C5.2095 7.92025 5.741 7.3887 5.741 6.69765C5.741 6.0598 5.2095 5.52825 4.5185 5.52825ZM8.1865 4.51827C8.1865 3.72093 7.5485 3.08306 6.751 3.08306C5.9535 3.08306 5.316 3.72093 5.316 4.51827C5.316 5.3156 5.9535 5.9535 6.751 5.9535C7.5485 5.9535 8.1865 5.3156 8.1865 4.51827ZM10.6315 2.81728C10.6315 2.1794 10.047 1.59468 9.409 1.59468C8.718 1.59468 8.1865 2.1794 8.1865 2.81728C8.1865 3.50831 8.718 4.03987 9.409 4.03987C10.047 4.03987 10.6315 3.50831 10.6315 2.81728ZM10.9505 25.6744C10.3125 25.6744 9.781 26.206 9.781 26.897C9.781 27.5349 10.3125 28.1196 10.9505 28.1196C11.6415 28.1196 12.173 27.5349 12.173 26.897C12.173 26.206 11.6415 25.6744 10.9505 25.6744ZM13.449 1.70099C13.449 1.00996 12.9175 0.478406 12.2795 0.478406C11.5885 0.478406 11.057 1.00996 11.057 1.70099C11.057 2.33887 11.5885 2.87043 12.2795 2.87043C12.9175 2.87043 13.449 2.33887 13.449 1.70099ZM14.0335 2.97674C13.396 2.97674 12.864 3.50831 12.864 4.19934C12.864 4.83721 13.396 5.42195 14.0335 5.42195C14.7245 5.42195 15.2565 4.83721 15.2565 4.19934C15.2565 3.50831 14.7245 2.97674 14.0335 2.97674ZM16.532 1.22259C16.532 0.53156 16.0005 0 15.3625 0C14.6715 0 14.14 0.53156 14.14 1.22259C14.14 1.86047 14.6715 2.39202 15.3625 2.39202C16.0005 2.39202 16.532 1.86047 16.532 1.22259ZM18.3925 5.6877C17.5955 5.6877 16.9575 6.3256 16.9575 7.1229C16.9575 7.92025 17.5955 8.55815 18.3925 8.55815C19.19 8.55815 19.828 7.92025 19.828 7.1229C19.828 6.3256 19.19 5.6877 18.3925 5.6877ZM19.6155 1.38206C19.6155 0.79734 19.137 0.372093 18.552 0.372093C17.9675 0.372093 17.542 0.79734 17.542 1.38206C17.542 1.96678 17.9675 2.44518 18.552 2.44518C19.137 2.44518 19.6155 1.96678 19.6155 1.38206ZM19.9875 3.45515C19.3495 3.45515 18.818 3.98671 18.818 4.67774C18.818 5.3156 19.3495 5.90035 19.9875 5.90035C20.6785 5.90035 21.21 5.3156 21.21 4.67774C21.21 3.98671 20.6785 3.45515 19.9875 3.45515ZM22.539 2.23256C22.539 1.64784 22.0605 1.16944 21.476 1.16944C20.891 1.16944 20.4125 1.64784 20.4125 2.23256C20.4125 2.76412 20.891 3.24253 21.476 3.24253C22.0605 3.24253 22.539 2.76412 22.539 2.23256ZM23.921 6.00665C23.921 5.36875 23.3895 4.78406 22.6985 4.78406C22.0605 4.78406 21.476 5.36875 21.476 6.00665C21.476 6.69765 22.0605 7.22925 22.6985 7.22925C23.3895 7.22925 23.921 6.69765 23.921 6.00665ZM25.7285 13.1827C25.7285 12.3323 25.0375 11.588 24.1335 11.588C23.283 11.588 22.592 12.3323 22.592 13.1827C22.592 14.0864 23.283 14.7774 24.1335 14.7774C25.0375 14.7774 25.7285 14.0864 25.7285 13.1827ZM26.26 18.8704C26.26 19.4551 26.7385 19.8804 27.27 19.8804C27.8545 19.8804 28.28 19.4551 28.28 18.8704C28.28 18.3388 27.8545 17.8605 27.27 17.8605C26.7385 17.8605 26.26 18.3388 26.26 18.8704ZM28.8645 13.1827C28.8645 12.5449 28.28 12.0133 27.642 12.0133C26.951 12.0133 26.4195 12.5449 26.4195 13.1827C26.4195 13.8737 26.951 14.4053 27.642 14.4053C28.28 14.4053 28.8645 13.8737 28.8645 13.1827ZM29.4495 21.1562C28.8115 21.1562 28.28 21.6877 28.28 22.3787C28.28 23.0166 28.8115 23.5481 29.4495 23.5481C30.1405 23.5481 30.672 23.0166 30.672 22.3787C30.672 21.6877 30.1405 21.1562 29.4495 21.1562ZM31.682 16C31.682 15.4684 31.257 14.9901 30.672 14.9901C30.1405 14.9901 29.7155 15.4684 29.7155 16C29.7155 16.5847 30.1405 17.01 30.672 17.01C31.257 17.01 31.682 16.5847 31.682 16Z" fill="#FFD645"/>
</g>
<defs>
<clipPath id="clip0_1703_5416">
<rect width="32" height="32" fill="white"/>
</clipPath>
</defs>
</svg>
